<?xml version="1.0" encoding="UTF-8"?>
<svg width="885px" height="125px" viewBox="0 0 885 125" version="1.1" xmlns="http://www.w3.org/2000/svg" xmlns:xlink="http://www.w3.org/1999/xlink">
    <!-- Generator: Sketch 42 (36781) - http://www.bohemiancoding.com/sketch -->
    <title>Group 2</title>
    <desc>Created with Sketch.</desc>
    <defs></defs>
    <g id="Page-1" stroke="none" stroke-width="1" fill="none" fill-rule="evenodd">
        <g id="Group-2" transform="translate(0.000000, -1.000000)" fill="#000000">
            <g id="game-of-thrones" fill-rule="nonzero">
                <g id="Group">
                    <path d="M107,71.529 C104.886,72.716 103.829,74.803 103.829,77.795 L103.829,116.935 C103.829,117.039 103.725,117.194 103.519,117.4 C101.042,119.255 98.335,120.753 95.397,121.885 C92.458,123.022 89.415,123.872 86.27,124.44 C83.123,125.002 79.978,125.368 76.832,125.522 C73.686,125.676 70.617,125.752 67.627,125.752 C63.087,125.752 58.499,125.597 53.858,125.288 C45.709,124.669 38.361,122.608 31.813,119.1 C25.262,115.594 19.692,111.032 15.105,105.409 C10.515,99.789 6.983,93.394 4.508,86.225 C2.032,79.058 0.794,71.503 0.794,63.561 C0.794,54.381 2.443,46.259 5.744,39.195 C9.044,32.132 13.557,26.199 19.281,21.404 C25.007,16.609 31.682,13 39.315,10.574 C46.946,8.152 55.095,6.939 63.759,6.939 C68.4,6.939 73.065,7.197 77.759,7.711 C82.449,8.23 87.065,8.794 91.605,9.413 C93.667,9.724 95.705,10.032 97.715,10.342 C99.727,10.652 101.762,10.91 103.825,11.115 C104.236,11.115 104.444,11.323 104.444,11.734 C104.236,15.447 103.876,19.083 103.361,22.641 C102.843,26.199 102.329,29.784 101.815,33.393 C101.711,34.116 101.607,34.812 101.505,35.481 C101.401,36.153 101.297,36.795 101.195,37.415 C101.195,37.726 101.013,37.906 100.653,37.957 C100.29,38.01 100.058,37.88 99.956,37.57 C99.131,33.136 97.637,29.32 95.471,26.122 C93.304,22.926 90.648,20.27 87.504,18.155 C84.357,16.042 80.824,14.495 76.906,13.513 C72.985,12.534 68.912,12.042 64.684,12.042 C57.568,12.042 50.939,13.23 44.805,15.602 C38.667,17.976 33.329,21.301 28.792,25.581 C24.254,29.862 20.671,35.019 18.041,41.051 C15.415,47.086 14.1,53.714 14.1,60.932 C14.1,68.771 15.542,76.169 18.432,83.131 C21.319,90.093 25.264,96.18 30.267,101.386 C35.268,106.597 41.198,110.722 48.058,113.764 C54.914,116.806 62.315,118.326 70.258,118.326 C73.66,118.326 77.115,117.939 80.622,117.165 C84.127,116.393 87.12,114.717 89.596,112.139 L89.596,77.33 C89.596,74.855 88.823,73.181 87.276,72.303 C85.729,71.428 83.974,70.678 82.016,70.06 C81.19,69.854 80.365,69.595 79.54,69.286 C78.713,68.977 77.89,68.566 77.064,68.049 C76.754,67.843 76.651,67.611 76.754,67.353 C76.856,67.097 77.064,66.966 77.372,66.966 C83.56,66.966 89.671,67.02 95.705,67.121 C101.739,67.225 107.85,67.431 114.038,67.74 L114.193,68.977 C111.51,69.493 109.112,70.344 107,71.529 Z" id="Shape"></path>
                    <path d="M360.138,58.515 C360.077,58.693 359.946,58.768 359.738,58.737 C359.531,58.709 359.429,58.604 359.429,58.426 C359.429,56.473 358.897,55.098 357.831,54.299 C356.766,53.501 355.286,53.101 353.393,53.101 C352.563,53.101 351.78,53.146 351.039,53.235 C350.3,53.323 349.516,53.426 348.687,53.545 C348.095,53.665 347.445,53.754 346.735,53.813 C346.025,53.873 345.373,53.902 344.782,53.902 L344.782,71.297 L356.762,71.297 C357.176,71.297 357.65,71.119 358.182,70.765 C358.714,70.41 359.129,70.054 359.425,69.701 C359.542,69.583 359.676,69.553 359.823,69.611 C359.971,69.672 360.046,69.789 360.046,69.966 C359.927,71.623 359.764,73.237 359.558,74.803 C359.351,76.37 359.1,77.925 358.804,79.462 C358.743,79.64 358.612,79.714 358.405,79.684 C358.197,79.656 358.094,79.55 358.094,79.373 C358.152,77.42 357.663,76.075 356.63,75.335 C355.594,74.596 354.129,74.227 352.235,74.227 L344.78,74.227 L344.78,91.977 C344.78,92.685 344.927,93.425 345.224,94.196 C345.519,94.965 345.934,95.645 346.467,96.237 C347,96.829 347.619,97.3 348.33,97.657 C349.04,98.011 349.809,98.189 350.637,98.189 L350.637,98.899 L350.016,98.899 C349.364,98.899 348.743,98.869 348.152,98.811 C347.56,98.752 346.938,98.694 346.29,98.632 C345.638,98.574 345.017,98.531 344.426,98.5 C343.834,98.47 343.241,98.455 342.651,98.455 C342.061,98.455 341.467,98.485 340.878,98.544 C340.285,98.604 339.692,98.662 339.103,98.721 C338.393,98.782 337.696,98.825 337.018,98.854 C336.337,98.884 335.672,98.899 335.022,98.899 L334.489,98.899 C334.311,98.899 334.208,98.795 334.178,98.587 C334.147,98.38 334.222,98.248 334.4,98.189 C335.464,98.01 336.294,97.79 336.884,97.523 C337.474,97.256 337.905,96.902 338.171,96.458 C338.438,96.015 338.585,95.454 338.615,94.771 C338.643,94.091 338.658,93.218 338.658,92.154 L338.658,55.055 C338.658,53.694 338.391,52.851 337.86,52.525 C337.326,52.201 336.707,51.949 335.998,51.772 C335.7,51.653 335.332,51.521 334.889,51.372 C334.445,51.226 333.986,51.004 333.514,50.706 C333.337,50.588 333.276,50.455 333.337,50.307 C333.395,50.161 333.514,50.085 333.691,50.085 C337.42,50.262 341.174,50.352 344.962,50.352 L351.263,50.352 C351.558,50.352 351.868,50.367 352.195,50.397 C352.519,50.426 352.86,50.441 353.216,50.441 C354.574,50.501 355.981,50.501 357.43,50.441 C358.88,50.382 360.137,50.057 361.201,49.464 C361.319,49.345 361.451,49.345 361.601,49.464 C361.747,49.583 361.792,49.731 361.733,49.908 L360.138,58.515 Z" id="Shape"></path>
                    <path d="M844.346,14.839 C844.237,18.473 843.749,21.75 842.884,24.677 C842.775,25.002 842.557,25.164 842.233,25.164 C841.908,25.164 841.69,25.002 841.582,24.677 C841.039,21.968 840.2,19.774 839.061,18.091 C837.923,16.412 836.485,15.083 834.751,14.108 C833.017,13.132 831.064,12.457 828.897,12.075 C826.726,11.698 824.45,11.506 822.066,11.506 L409.51,11.506 L409.51,106.475 C409.51,110.812 410.893,114.499 413.656,117.534 C416.421,120.571 419.861,122.412 423.981,123.064 C424.306,123.17 424.442,123.416 424.388,123.793 C424.332,124.173 424.143,124.361 423.819,124.361 C420.024,124.037 416.201,123.766 412.354,123.549 C408.504,123.333 404.629,123.225 400.728,123.225 C397.907,123.225 395.118,123.305 392.353,123.468 C389.589,123.631 386.797,123.822 383.978,124.037 C383.653,124.037 383.462,123.849 383.409,123.468 C383.352,123.09 383.491,122.845 383.816,122.738 C386.419,122.196 388.45,121.599 389.915,120.949 C391.378,120.298 392.46,119.433 393.167,118.345 C393.872,117.263 394.307,115.881 394.469,114.199 C394.632,112.518 394.714,110.376 394.714,107.775 L394.714,11.667 L367.882,11.667 C364.409,11.667 361.348,12.886 358.693,15.326 C356.036,17.765 354.058,20.504 352.758,23.538 C352.54,23.863 352.294,24 352.027,23.944 C351.756,23.89 351.62,23.7 351.62,23.375 C351.402,22.292 351.295,21.317 351.295,20.448 C351.295,18.281 351.565,16.167 352.107,14.106 C352.649,12.047 353.245,9.934 353.897,7.764 C354.221,6.681 354.547,5.623 354.873,4.592 C355.198,3.564 355.468,2.56 355.686,1.583 C355.902,0.934 356.227,0.826 356.662,1.258 C358.939,2.668 361.159,3.564 363.329,3.943 C365.498,4.323 367.989,4.511 370.809,4.511 L834.266,4.511 C835.133,4.511 836.079,4.376 837.112,4.105 C838.141,3.834 839.09,3.591 839.959,3.374 C840.502,3.268 841.123,3.158 841.829,3.049 C842.531,2.943 843.265,2.832 844.023,2.724 C844.348,2.724 844.511,2.943 844.511,3.374 L844.511,4.674 C844.51,7.82 844.452,11.207 844.346,14.839 Z" id="Shape"></path>
                    <path d="M509.156,113.222 C503.688,112.911 498.274,112.756 492.912,112.756 C490.952,112.756 489.018,112.782 487.111,112.834 C485.201,112.889 483.216,112.964 481.154,113.065 C480.845,113.065 480.664,112.887 480.613,112.524 C480.559,112.163 480.691,111.932 481.002,111.828 C484.195,110.899 486.261,109.662 487.189,108.115 C488.117,106.568 488.583,104.145 488.583,100.844 L488.583,68.667 L441.089,68.667 L441.089,101.154 C441.089,107.652 444.441,111.211 451.145,111.829 C451.456,111.829 451.61,112.037 451.61,112.448 C451.61,112.862 451.456,113.066 451.145,113.066 L446.349,113.066 C444.904,113.066 443.358,113.12 441.707,113.22 C440.572,113.22 439.257,113.246 437.763,113.297 C436.267,113.351 434.951,113.374 433.82,113.374 L429.952,113.374 C428.61,113.374 427.268,113.323 425.931,113.22 C425.518,113.22 425.026,113.197 424.461,113.144 C423.893,113.091 423.401,113.066 422.99,113.066 C422.679,113.066 422.5,112.887 422.449,112.525 C422.395,112.164 422.526,111.933 422.836,111.829 C424.483,111.519 425.825,111.186 426.857,110.824 C427.887,110.464 428.662,109.949 429.177,109.276 C429.693,108.606 430.028,107.755 430.183,106.723 C430.337,105.694 430.413,104.352 430.413,102.702 L430.413,36.798 C430.413,34.53 429.511,32.829 427.706,31.694 C425.901,30.561 423.969,29.942 421.905,29.838 L421.905,28.601 C426.236,28.911 430.515,29.066 434.746,29.066 C436.499,29.066 438.251,29.042 440.007,28.988 C441.759,28.938 443.512,28.911 445.266,28.911 L448.516,28.911 C448.825,28.911 448.98,29.119 448.98,29.53 C448.98,29.944 448.825,30.149 448.516,30.149 C446.66,30.149 444.982,30.716 443.488,31.851 C441.991,32.987 441.245,34.584 441.245,36.647 L441.245,63.565 L488.586,63.565 L488.586,37.265 C488.586,34.788 487.94,33.217 486.65,32.545 C485.359,31.876 483.789,31.283 481.932,30.767 C481.518,30.664 481.13,30.561 480.771,30.456 C480.41,30.354 480.022,30.25 479.611,30.146 C479.301,30.043 479.172,29.813 479.225,29.45 C479.275,29.09 479.454,28.909 479.767,28.909 C484.716,29.218 489.512,29.373 494.153,29.373 C496.215,29.373 498.304,29.35 500.42,29.295 C502.532,29.244 504.62,29.167 506.686,29.064 C506.995,29.064 507.174,29.245 507.228,29.605 C507.279,29.967 507.151,30.2 506.84,30.301 C504.57,30.714 502.765,31.307 501.426,32.079 C500.084,32.853 499.414,34.53 499.414,37.107 L499.414,100.536 C499.414,104.044 500.187,106.673 501.733,108.426 C503.282,110.182 505.807,111.365 509.315,111.985 L509.156,113.222 Z" id="Shape"></path>
                    <path d="M592.127,114.382 C590.219,114.846 588.339,115.078 586.481,115.078 C583.387,115.078 580.602,114.512 578.127,113.376 C575.652,112.243 573.434,110.8 571.476,109.044 C569.516,107.292 567.686,105.28 565.984,103.011 C564.284,100.744 562.658,98.423 561.112,96.05 C559.667,93.884 558.145,91.745 556.55,89.63 C554.947,87.518 553.196,85.609 551.288,83.906 C549.38,82.203 547.317,80.839 545.1,79.806 C542.882,78.776 540.382,78.258 537.597,78.258 L535.121,78.258 C534.397,78.258 533.625,78.362 532.801,78.568 L532.801,100.536 C532.801,103.528 533.703,106.081 535.508,108.193 C537.312,110.308 539.709,111.519 542.701,111.829 L542.701,113.066 C540.327,112.862 537.982,112.68 535.662,112.525 C533.343,112.37 530.996,112.294 528.625,112.294 C526.25,112.294 523.955,112.398 521.739,112.604 C519.519,112.812 517.225,113.068 514.854,113.376 C514.543,113.48 514.312,113.353 514.158,112.989 C514.005,112.629 514.082,112.345 514.39,112.138 C516.555,111.108 518.359,109.562 519.805,107.496 C521.247,105.434 521.97,103.217 521.97,100.843 L521.97,39.119 C521.97,36.747 521.118,34.659 519.417,32.853 C517.716,31.049 515.678,29.835 513.307,29.216 C512.997,29.114 512.867,28.883 512.919,28.521 C512.971,28.161 513.151,27.979 513.46,27.979 L543.938,27.979 C547.134,27.979 550.282,28.366 553.376,29.139 C556.469,29.912 559.2,31.126 561.574,32.775 C563.945,34.425 565.852,36.59 567.299,39.272 C568.741,41.955 569.464,45.151 569.464,48.864 C569.464,53.814 568.097,58.509 565.364,62.941 C562.63,67.377 559.562,71.194 556.159,74.39 C557.294,75.626 558.53,77.201 559.873,79.108 C561.212,81.018 562.656,83.003 564.203,85.065 C566.472,88.159 568.868,91.331 571.398,94.579 C573.923,97.828 576.58,100.767 579.365,103.397 C582.149,106.028 585.035,108.091 588.028,109.585 C591.018,111.081 594.062,111.623 597.155,111.21 L597.62,112.447 C595.865,113.275 594.036,113.918 592.127,114.382 Z M557.318,46.544 C556.547,43.863 555.385,41.44 553.839,39.273 C552.292,37.107 550.382,35.328 548.114,33.936 C545.844,32.543 543.215,31.848 540.223,31.848 C538.986,31.848 537.748,31.925 536.51,32.079 C535.272,32.234 534.086,32.57 532.95,33.085 L532.95,71.606 C534.703,71.916 536.405,72.123 538.055,72.224 C539.702,72.328 541.407,72.378 543.159,72.378 C548.934,72.378 552.93,70.808 555.148,67.659 C557.365,64.514 558.474,60.156 558.474,54.586 C558.479,51.908 558.094,49.227 557.318,46.544 Z" id="Shape"></path>
                    <path d="M670.702,89.784 C668.277,94.89 665.056,99.298 661.032,103.011 C657.01,106.725 652.344,109.614 647.033,111.675 C641.72,113.739 636.127,114.77 630.248,114.77 C625.397,114.77 620.37,113.584 615.164,111.211 C609.955,108.839 605.185,105.745 600.853,101.928 C596.521,98.115 592.937,93.782 590.1,88.934 C587.263,84.086 585.846,79.188 585.846,74.237 C585.846,66.71 586.542,60.236 587.935,54.821 C589.328,49.406 591.57,44.819 594.664,41.051 C597.761,37.287 601.832,34.194 606.887,31.77 C611.939,29.348 618.127,27.361 625.451,25.813 L627.463,25.658 C634.063,25.143 640.199,26.098 645.872,28.52 C651.543,30.944 656.493,34.348 660.725,38.73 C664.953,43.115 668.279,48.296 670.704,54.277 C673.126,60.259 674.339,66.55 674.339,73.151 C674.338,79.135 673.123,84.678 670.702,89.784 Z M628.709,30.772 C627.386,30.794 626.102,30.879 624.855,31.027 L624.854,109.129 C626.1,109.398 627.384,109.585 628.708,109.696 L628.709,30.772 Z M637.926,109.289 C640.68,108.801 643.227,107.973 645.565,106.802 C649.586,104.79 652.961,102.111 655.697,98.756 C658.428,95.406 660.493,91.513 661.886,87.077 C663.277,82.643 663.972,77.95 663.972,72.999 C663.972,67.947 663.224,62.894 661.731,57.838 C660.235,52.786 658.017,48.247 655.079,44.225 C652.141,40.203 648.527,36.954 644.249,34.478 C642.278,33.337 640.171,32.46 637.927,31.845 L637.927,109.289 L637.926,109.289 Z M635.243,31.247 C633.996,31.028 632.713,30.884 631.389,30.814 L631.389,109.817 L631.639,109.817 C632.874,109.817 634.077,109.761 635.243,109.651 L635.243,31.247 Z M622.194,31.447 C619.798,31.925 617.556,32.65 615.471,33.626 C611.397,35.536 607.968,38.166 605.184,41.518 C602.399,44.871 600.258,48.738 598.763,53.12 C597.267,57.505 596.521,62.171 596.521,67.121 C596.521,72.279 597.294,77.385 598.841,82.436 C600.388,87.49 602.682,92.053 605.726,96.126 C608.767,100.202 612.455,103.501 616.787,106.028 C618.495,107.024 620.297,107.823 622.196,108.425 L622.194,31.447 Z" id="Shape"></path>
                    <path d="M766.11,29.759 C766.058,29.708 765.929,29.736 765.724,29.837 C764.278,30.25 762.758,30.766 761.16,31.384 C759.56,32.003 758.764,33.086 758.764,34.633 L758.918,71.917 L758.918,78.26 C758.918,84.242 758.814,90.149 758.607,95.974 C758.399,101.801 758.039,107.654 757.525,113.533 C757.525,113.741 757.394,113.92 757.137,114.074 C756.879,114.228 756.648,114.204 756.442,113.997 C751.491,109.768 746.543,105.205 741.59,100.306 C736.639,95.41 731.766,90.406 726.97,85.3 C722.175,80.196 717.456,75.039 712.815,69.83 C708.175,64.623 703.739,59.542 699.51,54.591 C698.066,53.044 696.777,51.574 695.643,50.183 C694.507,48.789 693.218,47.321 691.775,45.774 C691.466,48.559 691.311,51.242 691.311,53.819 C691.311,57.739 691.362,61.658 691.466,65.576 C691.568,69.496 691.722,73.415 691.93,77.333 C692.136,81.254 692.29,85.172 692.394,89.09 C692.498,93.011 692.549,96.981 692.549,101.003 C692.549,102.758 692.704,104.174 693.013,105.257 C693.324,106.34 693.709,107.192 694.173,107.811 C694.637,108.429 695.202,108.869 695.875,109.125 C696.544,109.384 697.239,109.565 697.963,109.666 C698.788,109.874 699.611,110.105 700.44,110.362 C701.263,110.621 702.242,111.162 703.378,111.986 C703.584,112.193 703.659,112.424 703.609,112.683 C703.556,112.941 703.378,113.069 703.066,113.069 C702.036,112.966 701.029,112.865 700.05,112.758 C699.069,112.657 698.064,112.553 697.031,112.449 C695.588,112.244 694.117,112.089 692.623,111.984 C691.127,111.881 689.656,111.83 688.214,111.83 C686.359,111.83 684.449,111.961 682.489,112.217 C680.529,112.477 678.569,112.758 676.61,113.069 C676.301,113.173 676.07,113.069 675.916,112.758 C675.761,112.449 675.785,112.193 675.992,111.986 C676.816,111.265 677.564,110.697 678.236,110.285 C678.905,109.874 679.549,109.512 680.17,109.201 C681.406,108.583 682.515,107.731 683.496,106.649 C684.475,105.566 684.966,103.839 684.966,101.465 L684.966,29.065 L686.203,26.588 C686.306,26.382 686.46,26.229 686.668,26.124 C686.873,26.022 687.027,26.073 687.132,26.278 C698.371,37.934 709.255,49.406 719.776,60.699 C730.296,71.992 740.969,83.673 751.798,95.74 L751.798,95.276 C751.798,90.533 751.772,85.838 751.721,81.198 C751.668,76.557 751.591,71.814 751.489,66.966 C751.385,62.532 751.281,57.815 751.18,52.811 C751.076,47.81 751.026,43.091 751.026,38.656 C751.026,36.904 750.843,35.485 750.483,34.402 C750.122,33.319 749.632,32.494 749.013,31.925 C748.395,31.36 747.722,30.974 747.002,30.766 C746.278,30.56 745.557,30.406 744.836,30.301 C744.011,30.199 743.264,30.069 742.593,29.914 C741.922,29.759 741.328,29.426 740.814,28.909 C740.607,28.703 740.583,28.445 740.738,28.135 C740.893,27.826 741.072,27.725 741.28,27.826 C743.651,28.135 745.866,28.29 747.93,28.29 L754.428,28.29 C755.769,28.29 757.135,28.267 758.529,28.213 C759.922,28.162 761.338,28.19 762.783,28.29 C763.3,28.29 763.866,28.317 764.484,28.368 C765.103,28.421 765.671,28.445 766.186,28.445 L766.497,29.683 C766.291,29.785 766.162,29.812 766.11,29.759 Z" id="Shape"></path>
                    <path d="M824.684,104.945 C824.374,107.164 824.065,109.457 823.756,111.829 C823.756,112.14 823.547,112.294 823.137,112.294 L822.982,112.448 C822.156,112.757 821.486,112.912 820.971,112.912 C818.598,112.912 816.2,112.89 813.777,112.835 C811.352,112.783 808.955,112.757 806.584,112.757 C804.521,112.757 802.509,112.734 800.552,112.682 C798.592,112.629 796.58,112.604 794.519,112.604 C791.734,112.604 788.922,112.629 786.086,112.682 C783.248,112.734 780.44,112.812 777.655,112.912 L777.655,111.675 C779.201,111.675 780.464,111.341 781.445,110.668 C782.424,109.999 783.17,109.148 783.687,108.116 C784.203,107.086 784.539,105.925 784.693,104.635 C784.848,103.348 784.924,102.032 784.924,100.692 L784.924,36.334 C784.924,34.272 784.435,32.932 783.454,32.313 C782.473,31.694 781.417,31.178 780.282,30.766 C779.665,30.56 778.969,30.328 778.194,30.069 C777.422,29.813 776.62,29.425 775.798,28.909 C775.59,28.703 775.512,28.471 775.566,28.213 C775.617,27.957 775.798,27.826 776.107,27.826 L820.198,27.826 C820.608,27.62 821.051,27.439 821.512,27.284 C821.977,27.129 822.413,26.951 822.827,26.742 C823.343,26.537 823.6,26.742 823.6,27.361 C823.288,30.044 822.902,32.543 822.439,34.864 C821.975,37.184 821.484,39.531 820.969,41.903 C820.865,42.213 820.633,42.342 820.273,42.29 C819.911,42.239 819.731,42.059 819.731,41.748 C819.524,38.139 818.286,35.769 816.019,34.631 C813.748,33.497 810.963,32.93 807.665,32.93 L795.443,32.93 L795.443,64.645 L813.387,64.645 C813.902,64.645 814.574,64.491 815.399,64.18 C816.224,63.87 817.046,63.562 817.875,63.252 C819.01,62.633 820.143,62.169 821.278,61.859 C821.793,61.654 822.05,61.859 822.05,62.477 C821.946,63.714 821.818,65.057 821.664,66.499 C821.509,67.944 821.327,69.283 821.122,70.521 C820.914,71.757 820.76,73.048 820.659,74.389 C820.554,75.73 820.398,77.018 820.193,78.256 C820.193,78.566 820.063,78.774 819.806,78.875 C819.548,78.979 819.315,78.928 819.109,78.72 C818.593,78.205 818.259,77.691 818.105,77.173 C817.949,76.658 817.768,76.09 817.563,75.472 C817.354,74.854 817.15,74.235 816.944,73.616 C816.736,72.997 816.377,72.431 815.861,71.915 C815.343,71.4 814.392,71.014 812.999,70.754 C811.607,70.498 810.11,70.29 808.515,70.136 C806.913,69.982 805.343,69.905 803.795,69.905 L800.236,69.905 L795.594,69.905 L795.594,101.774 C797.142,104.045 799.332,105.772 802.169,106.957 C805.005,108.145 807.763,108.736 810.444,108.736 C814.053,108.736 817.123,107.783 819.649,105.874 C822.175,103.967 823.85,101.26 824.677,97.752 L825.914,98.062 C825.404,100.434 824.992,102.729 824.684,104.945 Z" id="Shape"></path>
                    <path d="M881.748,100.381 C879.841,103.373 877.418,105.925 874.478,108.04 C871.539,110.154 868.29,111.807 864.731,112.989 C861.171,114.177 857.793,114.768 854.598,114.768 C853.05,114.768 851.426,114.588 849.726,114.226 C848.023,113.866 846.476,113.275 845.083,112.448 C843.689,111.624 842.554,110.567 841.679,109.276 C840.803,107.987 840.365,106.364 840.365,104.403 C840.365,103.165 840.495,101.926 840.752,100.69 C841.01,99.453 841.241,98.268 841.449,97.13 L842.221,93.418 C842.221,93.108 842.427,92.953 842.84,92.953 C843.251,92.953 843.46,93.108 843.46,93.418 L843.46,95.738 C843.46,97.904 843.923,99.814 844.851,101.462 C845.78,103.113 846.962,104.532 848.41,105.716 C849.853,106.904 851.529,107.78 853.437,108.348 C855.344,108.914 857.279,109.198 859.24,109.198 C861.096,109.198 863.004,108.889 864.965,108.271 C866.922,107.652 868.7,106.75 870.303,105.563 C871.9,104.377 873.216,102.933 874.246,101.232 C875.274,99.53 875.793,97.649 875.793,95.585 C875.793,93.627 875.329,91.693 874.4,89.784 C873.472,87.877 872.234,85.943 870.687,83.983 C869.14,82.025 867.385,80.065 865.426,78.104 C863.467,76.146 861.455,74.186 859.394,72.225 C857.228,70.163 855.063,68.075 852.896,65.959 C850.73,63.846 848.82,61.681 847.171,59.461 C845.521,57.245 844.18,55.001 843.149,52.732 C842.118,50.464 841.603,48.145 841.603,45.771 C841.603,42.267 842.582,39.25 844.542,36.72 C846.499,34.195 848.925,32.132 851.813,30.532 C854.698,28.935 857.845,27.747 861.25,26.974 C864.653,26.2 867.799,25.813 870.688,25.813 C874.812,25.813 878.579,26.33 881.981,27.36 C882.292,27.568 882.447,27.773 882.447,27.978 C882.033,33.033 881.415,38.242 880.591,43.603 C880.487,43.912 880.279,44.068 879.972,44.068 C879.661,44.068 879.454,43.912 879.353,43.603 C878.527,39.994 876.955,36.9 874.634,34.321 C872.315,31.744 869.243,30.453 865.429,30.453 C861.509,30.453 858.236,31.717 855.607,34.243 C852.977,36.772 851.662,39.993 851.662,43.911 C851.662,45.976 852.1,47.883 852.977,49.636 C853.851,51.392 854.988,53.093 856.378,54.741 C857.773,56.392 859.397,58.016 861.253,59.614 C863.108,61.215 865.016,62.839 866.978,64.488 C869.143,66.243 871.282,68.072 873.398,69.98 C875.51,71.889 877.394,73.9 879.044,76.014 C880.692,78.128 882.034,80.371 883.066,82.743 C884.094,85.117 884.613,87.693 884.613,90.478 C884.611,94.091 883.656,97.391 881.748,100.381 Z" id="Shape"></path>
                </g>
                <path d="M328.162,85.897 C326.785,88.797 324.954,91.303 322.666,93.415 C320.381,95.525 317.728,97.165 314.709,98.338 C311.688,99.511 308.511,100.098 305.168,100.098 C302.413,100.098 299.555,99.424 296.597,98.076 C293.636,96.728 290.926,94.97 288.463,92.8 C286.001,90.633 283.963,88.17 282.353,85.415 C280.741,82.66 279.935,79.875 279.935,77.062 C279.935,72.783 280.331,69.103 281.123,66.025 C281.915,62.948 283.189,60.34 284.947,58.201 C286.707,56.061 289.021,54.303 291.894,52.926 C294.765,51.549 298.282,50.42 302.445,49.54 L303.589,49.452 C307.339,49.16 310.828,49.702 314.053,51.078 C317.276,52.457 320.09,54.391 322.492,56.882 C324.895,59.375 326.785,62.32 328.163,65.719 C329.539,69.118 330.229,72.695 330.229,76.446 C330.229,79.845 329.539,82.996 328.162,85.897 Z M304.295,52.357 C303.544,52.37 302.815,52.419 302.106,52.503 L302.106,96.893 C302.814,97.044 303.544,97.152 304.294,97.215 L304.295,52.357 Z M309.533,96.983 C311.099,96.706 312.547,96.235 313.875,95.57 C316.161,94.424 318.08,92.903 319.634,90.997 C321.187,89.093 322.361,86.88 323.153,84.359 C323.944,81.838 324.34,79.171 324.34,76.356 C324.34,73.485 323.915,70.613 323.065,67.741 C322.215,64.869 320.955,62.289 319.285,60.003 C317.614,57.716 315.561,55.87 313.13,54.463 C312.01,53.817 310.812,53.317 309.535,52.967 L309.535,96.983 L309.533,96.983 Z M308.01,52.627 C307.302,52.503 306.571,52.422 305.821,52.381 L305.821,97.283 L305.962,97.283 C306.665,97.283 307.349,97.252 308.012,97.188 L308.01,52.627 Z M300.594,52.742 C299.232,53.013 297.958,53.426 296.774,53.98 C294.458,55.066 292.51,56.561 290.927,58.464 C289.344,60.369 288.126,62.568 287.278,65.058 C286.427,67.549 286.003,70.202 286.003,73.016 C286.003,75.948 286.443,78.848 287.323,81.719 C288.201,84.592 289.506,87.186 291.235,89.5 C292.964,91.818 295.061,93.693 297.522,95.128 C298.492,95.695 299.517,96.149 300.596,96.492 L300.594,52.742 Z" id="Shape"></path>
            </g>
            <text id="IT" font-family="BigCaslon-Medium, Big Caslon" font-size="120" font-weight="400">
                <tspan x="125" y="115">IT</tspan>
            </text>
        </g>
    </g>
</svg>